# xmcd
#
# Track frame offsets:
#	187
#	19570
#	21628
#	38600
#	43998
#	66523
#	93150
#	120216
#	141049
#	169500
#
# Disc length: 2288 seconds
#
# Revision: 6
# Processed by: cddbd v1.5.2PL0 Copyright (c) Steve Scherf et al.
# Submitted via: audiograbber 1.83.01
#
DISCID=7c08ee0a
DTITLE=Kraftwerk - 3-D The Catalogue [CD 8) - Tour De France
DYEAR=2017
DGENRE=Electronic
TTITLE0=Tour De France [live]
TTITLE1=Prologue [live]
TTITLE2=Etape 1 [live]
TTITLE3=Chrono [live]
TTITLE4=Etape 2 [live]
TTITLE5=Vitamin [live]
TTITLE6=Aero Dynamik [live]
TTITLE7=Elektro Kardiogramm [live]
TTITLE8=La Forme [live]
TTITLE9=Regeneration [live]
EXTD=
EXTT0=
EXTT1=
EXTT2=
EXTT3=
EXTT4=
EXTT5=
EXTT6=
EXTT7=
EXTT8=
EXTT9=
PLAYORDER=
